<?xml version="1.0" encoding="iso-8859-1"?>
<!-- Generator: Adobe Illustrator 19.0.0, SVG Export Plug-In . SVG Version: 6.00 Build 0)  -->
<svg version="1.1" id="Capa_1" xmlns="http://www.w3.org/2000/svg" xmlns:xlink="http://www.w3.org/1999/xlink" x="0px" y="0px"
	 viewBox="0 0 511.999 511.999" style="enable-background:new 0 0 511.999 511.999;" xml:space="preserve">
<circle style="fill:#FFCF4B;" cx="255.999" cy="255.999" r="255.999"/>
<path style="fill:#535B70;" d="M45.98,0v402.41c5.653,8.087,11.755,15.841,18.286,23.207v-9.968c0-3.699,2.988-6.698,6.687-6.698
	h27.366c3.699,0,6.698,2.999,6.698,6.698v10.647c0,3.688-2.999,6.687-6.698,6.687H71.047c15.464,16.165,33.029,30.302,52.255,41.973
	c38.692,23.51,84.114,37.042,132.702,37.042s94.009-13.531,132.702-37.042c19.226-11.672,36.791-25.809,52.255-41.973h-27.282
	c-3.699,0-6.687-2.999-6.687-6.687v-10.647c0-3.699,2.988-6.698,6.687-6.698h27.366c3.699,0,6.698,2.999,6.698,6.698v9.968
	c6.531-7.366,12.633-15.12,18.286-23.207V0H45.98z M105.016,370.447c0,3.699-2.999,6.698-6.698,6.698H70.953
	c-3.699,0-6.687-2.999-6.687-6.698v-10.647c0-3.699,2.988-6.687,6.687-6.687h27.366c3.699,0,6.698,2.988,6.698,6.687V370.447z
	 M105.016,314.608c0,3.688-2.999,6.687-6.698,6.687H70.953c-3.699,0-6.687-2.999-6.687-6.687V303.96
	c0-3.699,2.988-6.698,6.687-6.698h27.366c3.699,0,6.698,2.999,6.698,6.698V314.608z M105.016,258.758
	c0,3.699-2.999,6.698-6.698,6.698H70.953c-3.699,0-6.687-2.999-6.687-6.698v-10.647c0-3.699,2.988-6.687,6.687-6.687h27.366
	c3.699,0,6.698,2.988,6.698,6.687V258.758z M105.016,202.919c0,3.699-2.999,6.687-6.698,6.687H70.953
	c-3.699,0-6.687-2.988-6.687-6.687v-10.647c0-3.699,2.988-6.698,6.687-6.698h27.366c3.699,0,6.698,2.999,6.698,6.698V202.919z
	 M105.016,147.069c0,3.699-2.999,6.698-6.698,6.698H70.953c-3.699,0-6.687-2.999-6.687-6.698v-10.647
	c0-3.688,2.988-6.687,6.687-6.687h27.366c3.699,0,6.698,2.999,6.698,6.687V147.069z M105.016,91.23c0,3.699-2.999,6.687-6.698,6.687
	H70.953c-3.699,0-6.687-2.988-6.687-6.687V80.582c0-3.699,2.988-6.698,6.687-6.698h27.366c3.699,0,6.698,2.999,6.698,6.698V91.23z
	 M105.016,35.391c0,3.688-2.999,6.687-6.698,6.687H70.953c-3.699,0-6.687-2.999-6.687-6.687V24.733c0-3.688,2.988-6.687,6.687-6.687
	h27.366c3.699,0,6.698,2.999,6.698,6.687V35.391z M447.742,370.447c0,3.699-2.999,6.698-6.698,6.698h-27.366
	c-3.699,0-6.687-2.999-6.687-6.698v-10.647c0-3.699,2.988-6.687,6.687-6.687h27.366c3.699,0,6.698,2.988,6.698,6.687V370.447z
	 M447.742,314.608c0,3.688-2.999,6.687-6.698,6.687h-27.366c-3.699,0-6.687-2.999-6.687-6.687V303.96
	c0-3.699,2.988-6.698,6.687-6.698h27.366c3.699,0,6.698,2.999,6.698,6.698V314.608z M447.742,258.758
	c0,3.699-2.999,6.698-6.698,6.698h-27.366c-3.699,0-6.687-2.999-6.687-6.698v-10.647c0-3.699,2.988-6.687,6.687-6.687h27.366
	c3.699,0,6.698,2.988,6.698,6.687V258.758z M447.742,202.919c0,3.699-2.999,6.687-6.698,6.687h-27.366
	c-3.699,0-6.687-2.988-6.687-6.687v-10.647c0-3.699,2.988-6.698,6.687-6.698h27.366c3.699,0,6.698,2.999,6.698,6.698V202.919z
	 M447.742,147.069c0,3.699-2.999,6.698-6.698,6.698h-27.366c-3.699,0-6.687-2.999-6.687-6.698v-10.647
	c0-3.688,2.988-6.687,6.687-6.687h27.366c3.699,0,6.698,2.999,6.698,6.687V147.069z M447.742,91.23c0,3.699-2.999,6.687-6.698,6.687
	h-27.366c-3.699,0-6.687-2.988-6.687-6.687V80.582c0-3.699,2.988-6.698,6.687-6.698h27.366c3.699,0,6.698,2.999,6.698,6.698V91.23z
	 M447.742,35.391c0,3.688-2.999,6.687-6.698,6.687h-27.366c-3.699,0-6.687-2.999-6.687-6.687V24.733
	c0-3.688,2.988-6.687,6.687-6.687h27.366c3.699,0,6.698,2.999,6.698,6.687V35.391z"/>
<g>
	<path style="fill:#6E7789;" d="M374.889,355.266H137.111c-7.629,0-13.812-6.184-13.812-13.812V170.548
		c0-7.629,6.184-13.812,13.812-13.812H374.89c7.629,0,13.812,6.184,13.812,13.812v170.905
		C388.701,349.081,382.518,355.266,374.889,355.266z"/>
	<path style="fill:#6E7789;" d="M388.705,0v95.618c0,7.628-6.186,13.814-13.814,13.814H137.115c-7.628,0-13.814-6.186-13.814-13.814
		V0H388.705z"/>
	<path style="fill:#6E7789;" d="M388.705,416.38v58.577c-38.693,23.51-84.114,37.042-132.702,37.042s-94.009-13.531-132.702-37.042
		V416.38c0-7.628,6.186-13.814,13.814-13.814h237.776C382.52,402.567,388.705,408.753,388.705,416.38z"/>
</g>
<path style="fill:#535B70;" d="M299.999,246.742l-69.233-39.971c-7.127-4.115-16.037,1.029-16.037,9.259v79.943
	c0,8.23,8.91,13.374,16.037,9.259l69.233-39.971C307.126,261.145,307.126,250.856,299.999,246.742z"/>
</svg>
